# Blender v2.76 (sub 0) OBJ File: ''
# www.blender.org
mtllib wall/wall.mtl
o material_0
v 1.000000 1.000000 0.250000
v -1.000000 1.000000 0.250000
v -1.000000 -1.000000 0.250000
v 1.000000 -1.000000 0.250000
v -1.000000 1.000000 -0.250000
v -1.000000 -1.000000 -0.250000
v 1.000000 1.000000 -0.250000
v 1.000000 -1.000000 -0.250000
vt 0.000000 1.000000
vt 0.000000 0.000000
vt 1.000000 0.000000
vt 0.750000 1.000000
vt 0.750000 0.000000
vt 0.000000 0.250000
vt 1.000000 0.250000
vt 1.000000 1.000000
vn 0.000000 -0.000000 1.000000
vn -1.000000 0.000000 0.000000
vn 0.000000 0.000000 -1.000000
vn 1.000000 0.000000 0.000000
vn 0.000000 1.000000 0.000000
vn 0.000000 -1.000000 0.000000
usemtl material_0
s off
f 2/1/1 3/2/1 4/3/1
f 5/4/2 6/5/2 3/3/2
f 7/1/3 8/2/3 6/3/3
f 1/4/4 4/5/4 8/3/4
f 5/6/5 2/2/5 1/3/5
f 8/3/6 4/7/6 3/6/6
f 1/8/1 2/1/1 4/3/1
f 2/8/2 5/4/2 3/3/2
f 5/8/3 7/1/3 6/3/3
f 7/8/4 1/4/4 8/3/4
f 7/7/5 5/6/5 1/3/5
f 6/2/6 8/3/6 3/6/6
